HIERARCHY
ROOT Hips
{
  OFFSET 0.000000 0.000000 0.000000
  CHANNELS 6 Xposition Yposition Zposition Xrotation Yrotation Zrotation
  JOINT Spine
  {
    OFFSET 0.881470 21.810334 -9.076147
    CHANNELS 3 Xrotation Yrotation Zrotation
    JOINT Chest
    {
      OFFSET 0.881470 21.810334 -9.076147
      CHANNELS 3 Xrotation Yrotation Zrotation
      JOINT Neck
      {
        OFFSET 0.000000 4.674388 0.000000
        CHANNELS 3 Xrotation Yrotation Zrotation
        JOINT Head
        {
          OFFSET 0.000000 4.678088 0.000000
          CHANNELS 3 Xrotation Yrotation Zrotation
          End Site
          {
            OFFSET 0.000000 1.403426 0.000000
          }
        }
      }
      JOINT LeftCollar
      {
        OFFSET 3.000000 4.000000 0.000000
        CHANNELS 3 Xrotation Yrotation Zrotation
        JOINT LeftShoulder
        {
          OFFSET 15.792676 -2.209392 -1.224738
          CHANNELS 3 Xrotation Yrotation Zrotation
          JOINT LeftArm
          {
            OFFSET 3.082085 -20.340128 -8.765461
            CHANNELS 3 Xrotation Yrotation Zrotation
            JOINT LeftForeArm
            {
              OFFSET -6.633304 3.932203 -15.582597
              CHANNELS 3 Xrotation Yrotation Zrotation
              JOINT LeftHand
              {
                OFFSET -2.474855 3.119097 -1.955211
                CHANNELS 3 Xrotation Yrotation Zrotation
                End Site
                {
                  OFFSET -0.742457 0.935729 -0.586563
                }
              }
            }
          }
        }
      }
      JOINT RightCollar
      {
        OFFSET -3.000000 4.000000 0.000000
        CHANNELS 3 Xrotation Yrotation Zrotation
        JOINT RightShoulder
        {
          OFFSET -15.792676 2.209392 1.224738
          CHANNELS 3 Xrotation Yrotation Zrotation
          JOINT RightArm
          {
            OFFSET -2.495612 -27.698627 -14.139695
            CHANNELS 3 Xrotation Yrotation Zrotation
            JOINT RightForeArm
            {
              OFFSET 9.302673 7.642058 -20.278665
              CHANNELS 3 Xrotation Yrotation Zrotation
              JOINT RightHand
              {
                OFFSET 4.807220 4.843324 -4.521461
                CHANNELS 3 Xrotation Yrotation Zrotation
                End Site
                {
                  OFFSET 1.442166 1.452997 -1.356438
                }
              }
            }
          }
        }
      }
    }
  }
  JOINT LeftUpLeg
  {
    OFFSET 10.328032 0.296165 2.790499
    CHANNELS 3 Xrotation Yrotation Zrotation
    JOINT LeftLeg
    {
      OFFSET 12.238276 -41.735834 -6.323935
      CHANNELS 3 Xrotation Yrotation Zrotation
      JOINT LeftFoot
      {
        OFFSET 10.938167 -37.656560 14.235581
        CHANNELS 3 Xrotation Yrotation Zrotation
        End Site
        {
          OFFSET 3.281450 -11.296968 4.270674
        }
      }
    }
  }
  JOINT RightUpLeg
  {
    OFFSET -10.328032 -0.296165 -2.790499
    CHANNELS 3 Xrotation Yrotation Zrotation
    JOINT RightLeg
    {
      OFFSET -6.716455 -33.878452 3.035436
      CHANNELS 3 Xrotation Yrotation Zrotation
      JOINT RightFoot
      {
        OFFSET -13.584754 -38.742798 13.536227
        CHANNELS 3 Xrotation Yrotation Zrotation
        End Site
        {
          OFFSET -4.075426 -11.622839 4.060868
        }
      }
    }
  }
}
MOTION
Frames: 9
Frame Time: 0.083333
0.074155 0.235060 0.097923 -2.248447 -0.567029 -1.486747 0.000000 0.000000 0.000000 -22.410350 5.595519 -10.103428 -58.824441 -16.660329 -2.957146 0.000000 0.000000 0.000000 25.321604 -4.386242 8.040172 8.079413 2.244923 11.273708 5.861539 -1.750404 -14.259103 -3.384013 7.038758 -0.783593 0.000000 0.000000 0.000000 25.321604 -4.386242 8.040172 7.606433 -0.080964 11.496337 7.140972 6.864681 -0.078467 -6.696819 -1.760284 -0.184182 0.000000 0.000000 0.000000 7.070660 1.444990 5.191429 -1.472302 0.188743 -4.363000 0.000000 0.000000 0.000000 21.789690 -2.140521 -5.976085 -36.592872 3.802624 6.529517 0.000000 0.000000 0.000000
0.073747 0.236832 0.112143 -0.580862 0.085237 0.262383 0.000000 0.000000 0.000000 -22.374012 6.389929 -7.108135 -60.622279 -6.615208 0.530173 0.000000 0.000000 0.000000 23.737659 -4.418658 8.020026 12.849936 -5.462744 15.422030 -2.275719 16.143198 -14.983035 2.750157 2.507596 9.502504 0.000000 0.000000 0.000000 23.737659 -4.418658 8.020026 7.729764 -0.425565 2.459847 3.870212 5.591534 5.088470 -6.535578 -3.019291 -1.638126 0.000000 0.000000 0.000000 5.304724 0.665949 3.384324 0.046439 0.611811 -3.856459 0.000000 0.000000 0.000000 20.238064 -3.299179 -7.963778 -36.398578 3.820460 7.952440 0.000000 0.000000 0.000000
0.071929 0.237683 0.145632 4.830550 0.829557 3.120271 0.000000 0.000000 0.000000 -22.325069 8.649872 -3.821764 -63.441819 4.443940 2.385538 0.000000 0.000000 0.000000 19.209889 -4.530347 8.158066 20.284036 -15.809552 18.660965 -8.367082 35.069266 -17.235466 3.823331 -5.254884 18.405456 0.000000 0.000000 0.000000 19.209889 -4.530347 8.158066 7.195815 -4.464536 -4.530141 1.009719 7.687021 7.173761 -6.185882 -3.953427 -1.586054 0.000000 0.000000 0.000000 -0.426924 0.080681 0.374613 1.341329 1.018480 -3.142858 0.000000 0.000000 0.000000 15.104629 -4.544600 -11.707222 -36.103171 3.555080 10.306740 0.000000 0.000000 0.000000
0.070386 0.236889 0.179462 15.126237 0.982425 5.970358 0.000000 0.000000 0.000000 -22.191067 13.455390 -2.415043 -71.006216 10.635906 -0.249865 0.000000 0.000000 0.000000 10.609594 -4.757121 8.539820 30.522242 -21.059889 16.333604 -24.194319 32.181248 -14.886680 -3.674226 -7.159348 19.122418 0.000000 0.000000 0.000000 10.609594 -4.757121 8.539820 5.519733 -10.386763 -8.048217 -1.954631 12.282786 6.914468 -5.799144 -4.325314 -0.728609 0.000000 0.000000 0.000000 -11.218803 0.825942 -2.733616 2.123055 1.389835 -2.043416 0.000000 0.000000 0.000000 5.323778 -4.569609 -15.925424 -36.039505 3.201042 12.816150 0.000000 0.000000 0.000000
0.067981 0.236799 0.192902 22.552170 0.587610 7.173378 0.000000 0.000000 0.000000 -22.028519 17.216728 -4.114411 -75.192770 12.490635 0.201175 0.000000 0.000000 0.000000 4.352757 -4.867791 8.893574 42.007147 -12.563697 5.595856 -56.162807 5.797796 -0.553697 -10.782539 -1.481533 14.901105 0.000000 0.000000 0.000000 4.352757 -4.867791 8.893574 3.529682 -13.490099 -7.383861 -3.010457 17.733512 6.095299 -5.042363 -4.799302 1.043900 0.000000 0.000000 0.000000 -19.343741 2.222186 -4.062937 4.128474 2.225049 -0.240379 0.000000 0.000000 0.000000 -1.615409 -3.437657 -18.789955 -35.607883 2.742172 15.582309 0.000000 0.000000 0.000000
0.063616 0.238599 0.191298 20.984794 0.863061 7.729904 0.000000 0.000000 0.000000 -21.984138 18.979062 -4.978304 -70.560945 12.096379 0.713728 0.000000 0.000000 0.000000 6.544321 -4.857449 9.121776 33.932932 -12.416961 3.974989 -41.482389 12.240388 -2.528127 -8.058486 -6.357365 14.161714 0.000000 0.000000 0.000000 6.544321 -4.857449 9.121776 0.230391 -14.723770 -6.619172 0.777017 19.778342 6.552851 -4.469915 -7.267851 1.792835 0.000000 0.000000 0.000000 -19.159338 1.851230 -5.164087 7.585917 3.240553 1.477945 0.000000 0.000000 0.000000 -0.217948 -3.650306 -21.376792 -34.072172 1.905677 19.037261 0.000000 0.000000 0.000000
0.058868 0.237846 0.185344 15.149626 1.399926 7.505693 0.000000 0.000000 0.000000 -22.129497 16.463332 -4.375968 -67.618993 9.751410 -1.014746 0.000000 0.000000 0.000000 11.677959 -4.771318 8.858969 20.113464 -15.749326 5.527390 -18.736656 23.936590 -5.472952 -1.307480 -6.664835 14.983470 0.000000 0.000000 0.000000 11.677959 -4.771318 8.858969 -3.648237 -12.222879 -5.874820 4.985538 20.292693 5.292766 -2.232913 -9.715372 3.472132 0.000000 0.000000 0.000000 -13.111078 0.566876 -4.721404 6.899080 3.156563 1.145747 0.000000 0.000000 0.000000 4.792507 -4.576366 -21.997754 -33.416408 1.579712 20.415333 0.000000 0.000000 0.000000
0.057806 0.233359 0.173539 5.207651 2.033596 6.153553 0.000000 0.000000 0.000000 -22.408231 10.557655 -3.797491 -61.034117 3.797279 -3.837596 0.000000 0.000000 0.000000 19.980167 -4.633300 8.560744 10.218043 -13.586179 9.391753 -2.105105 21.769273 -13.559030 -3.013820 -5.949849 9.335971 0.000000 0.000000 0.000000 19.980167 -4.633300 8.560744 -4.299014 -6.858804 -4.560419 2.006148 18.865266 2.127085 3.384028 -11.203433 6.362761 0.000000 0.000000 0.000000 -1.101546 -1.583007 -1.120464 5.055601 2.434261 -3.353379 0.000000 0.000000 0.000000 12.478183 -5.926003 -19.039002 -30.885106 1.612218 17.286052 0.000000 0.000000 0.000000
0.067955 0.226007 0.150640 6.153338 1.262483 3.916604 0.000000 0.000000 0.000000 -22.763928 -1.558287 -8.424165 -57.632287 -6.655819 -3.022547 0.000000 0.000000 0.000000 16.543604 -4.381785 8.377489 4.442941 -0.035507 12.627503 11.976012 6.148348 -22.366462 -9.522008 1.211422 6.138856 0.000000 0.000000 0.000000 16.543604 -4.381785 8.377489 -0.156116 7.077541 -3.359416 -2.344330 9.946225 1.008074 5.925658 -8.277349 4.820292 0.000000 0.000000 0.000000 1.509036 -0.879609 3.454969 2.446365 1.593627 -8.079710 0.000000 0.000000 0.000000 7.370047 -4.300707 -13.724550 -24.886029 1.055136 9.050607 0.000000 0.000000 0.000000
